<svg xmlns="http://www.w3.org/2000/svg" width="38.007" height="38" viewBox="0 0 38.007 38">
  <path id="Path_891" data-name="Path 891" d="M-16.625-14.25A16.626,16.626,0,0,1,0-30.875,16.626,16.626,0,0,1,16.625-14.25V-3.555A3.563,3.563,0,0,1,13.063.007L6.925,0A3.572,3.572,0,0,0,3.563-2.375h-4.75A3.563,3.563,0,0,0-4.75,1.188,3.563,3.563,0,0,0-1.187,4.75h4.75A3.572,3.572,0,0,0,6.925,2.375l6.138.007a5.942,5.942,0,0,0,5.945-5.937V-14.25A19.01,19.01,0,0,0,0-33.25a19,19,0,0,0-19,19v3.563A1.191,1.191,0,0,0-17.812-9.5a1.191,1.191,0,0,0,1.188-1.187ZM4.75,1.188A1.191,1.191,0,0,1,3.563,2.375h-4.75A1.191,1.191,0,0,1-2.375,1.188,1.191,1.191,0,0,1-1.187,0h4.75A1.191,1.191,0,0,1,4.75,1.188ZM-8.312-16.625h1.188v9.5H-8.312a3.563,3.563,0,0,1-3.562-3.562v-2.375A3.563,3.563,0,0,1-8.312-16.625Zm-5.937,3.563v2.375A5.936,5.936,0,0,0-8.312-4.75h1.188A2.372,2.372,0,0,0-4.75-7.125v-9.5A2.372,2.372,0,0,0-7.125-19H-8.312A5.936,5.936,0,0,0-14.25-13.062ZM7.125-16.625H8.313a3.563,3.563,0,0,1,3.563,3.563v2.375A3.563,3.563,0,0,1,8.313-7.125H7.125ZM8.313-19H7.125A2.372,2.372,0,0,0,4.75-16.625v9.5A2.372,2.372,0,0,0,7.125-4.75H8.313a5.936,5.936,0,0,0,5.938-5.937v-2.375A5.936,5.936,0,0,0,8.313-19Z" transform="translate(19 33.25)" fill="#fff"/>
</svg>
