<svg xmlns="http://www.w3.org/2000/svg" width="33.25" height="33.25" viewBox="0 0 33.25 33.25">
  <path id="Path_890" data-name="Path 890" d="M-11.875-28.5a2.372,2.372,0,0,0-2.375,2.375v23.75A2.372,2.372,0,0,0-11.875,0h23.75A2.372,2.372,0,0,0,14.25-2.375v-23.75A2.372,2.372,0,0,0,11.875-28.5Zm-4.75,2.375a4.754,4.754,0,0,1,4.75-4.75h23.75a4.754,4.754,0,0,1,4.75,4.75v23.75a4.754,4.754,0,0,1-4.75,4.75h-23.75a4.754,4.754,0,0,1-4.75-4.75ZM5.6-21.13a1.192,1.192,0,0,0-1.677,0L2.338-19.542l2.969,2.969,1.588-1.588a1.192,1.192,0,0,0,0-1.677ZM-5.455-11.749a1.168,1.168,0,0,0-.312.549L-6.68-7.563l3.637-.913a1.2,1.2,0,0,0,.549-.312L3.614-14.9.646-17.864l-6.108,6.108Zm7.7-11.059a3.57,3.57,0,0,1,5.039,0L8.58-21.516a3.57,3.57,0,0,1,0,5.039L-.809-7.1a3.554,3.554,0,0,1-1.655.935L-8.023-4.78a1.176,1.176,0,0,1-1.128-.312A1.176,1.176,0,0,1-9.463-6.22l1.388-5.559a3.619,3.619,0,0,1,.935-1.655l9.381-9.374Z" transform="translate(16.625 30.875)" fill="#fff"/>
</svg>
