<svg xmlns="http://www.w3.org/2000/svg" width="103.518" height="7.406" viewBox="0 0 103.518 7.406">
  <path id="Path_476" data-name="Path 476" d="M208.969,621.14c-.135,0-.275.01-.419.024-2.554.248-5.118.489-7.681.524-5.972.081-11.944.035-17.917.043-3.574.005-7.146.055-10.718.018-6.649-.07-13.3-.283-19.946-.259-5.874.022-11.747.329-17.62.426-2.286.037-4.575-.168-6.863-.244-.873-.029-1.825-.03-2.009,1.1a1.648,1.648,0,0,0,1.588,2.072c.841.114,1.693.164,2.541.226.65.047,1.3.066,1.955.1-1.9.354-3.783.394-5.644.626a1.945,1.945,0,0,0-1.376,1.089c-.1.337.524,1.122.993,1.332a4.873,4.873,0,0,0,2.234.323c5.446-.366,10.882-.926,16.332-1.16,8.292-.355,16.594-.515,24.892-.716,4.968-.121,9.938-.159,14.908-.236.449-.006,1.18.137,1.3-.069.818-1.395,1.556-.2,2.3,0l1.071-.768c-.034.337-.053.512-.057.557a50.922,50.922,0,0,1,5.385.041c1.72.186,3.25-.768,5-.465a28.292,28.292,0,0,0,4.913.122c3.924-.023,7.848-.16,11.77-.088,3.452.063,6.9.321,10.347.559.928.065,1.884.078,2.086-.924.205-1.017-.558-1.724-1.548-1.935a8.9,8.9,0,0,0-2.272-.149c-2.574.128-5.144.425-7.716.433a38.6,38.6,0,0,1-5-.621A2.862,2.862,0,0,0,208.969,621.14Zm0,0" transform="translate(-124.85 -621.139)" fill="#fff" fill-rule="evenodd"/>
</svg>
