<svg xmlns="http://www.w3.org/2000/svg" width="28" height="28" viewBox="0 0 28 28">
  <path id="Path_894" data-name="Path 894" d="M25.375-10.5a11.375,11.375,0,0,0-5.687-9.851,11.375,11.375,0,0,0-11.375,0A11.375,11.375,0,0,0,2.625-10.5,11.375,11.375,0,0,0,8.313-.649a11.375,11.375,0,0,0,11.375,0A11.375,11.375,0,0,0,25.375-10.5ZM0-10.5A14,14,0,0,1,7-22.624a14,14,0,0,1,14,0A14,14,0,0,1,28-10.5,14,14,0,0,1,21,1.624a14,14,0,0,1-14,0A14,14,0,0,1,0-10.5Zm10.3-5.955a1.314,1.314,0,0,1,1.329.027L19.5-11.616a1.319,1.319,0,0,1,.629,1.121A1.319,1.319,0,0,1,19.5-9.373L11.627-4.561a1.327,1.327,0,0,1-1.329.027,1.3,1.3,0,0,1-.673-1.143v-9.636A1.3,1.3,0,0,1,10.3-16.455Z" transform="translate(0 24.5)" fill="#fff"/>
</svg>
