<svg xmlns="http://www.w3.org/2000/svg" width="38" height="38" viewBox="0 0 38 38">
  <path id="Path_889" data-name="Path 889" d="M0,2.375c1.239,0,3-1.069,4.594-4.253A22.61,22.61,0,0,0,6.383-7.125H-6.383A22.61,22.61,0,0,0-4.594-1.878C-3,1.306-1.239,2.375,0,2.375ZM-6.806-9.5H6.806a34.712,34.712,0,0,0,.319-4.75A34.712,34.712,0,0,0,6.806-19H-6.806a34.712,34.712,0,0,0-.319,4.75A34.712,34.712,0,0,0-6.806-9.5Zm.423-11.875H6.383a22.61,22.61,0,0,0-1.789-5.247C3-29.806,1.239-30.875,0-30.875s-3,1.069-4.594,4.253A22.61,22.61,0,0,0-6.383-21.375ZM9.2-19a37.778,37.778,0,0,1,.3,4.75A37.778,37.778,0,0,1,9.2-9.5h6.739a16.744,16.744,0,0,0,.69-4.75,16.484,16.484,0,0,0-.69-4.75Zm5.826-2.375a16.653,16.653,0,0,0-9.715-8.632,22.024,22.024,0,0,1,3.5,8.632h6.22Zm-23.832,0a21.976,21.976,0,0,1,3.5-8.632,16.624,16.624,0,0,0-9.723,8.632H-8.81ZM-15.927-19a16.744,16.744,0,0,0-.69,4.75,16.484,16.484,0,0,0,.69,4.75H-9.2a37.778,37.778,0,0,1-.3-4.75A37.778,37.778,0,0,1-9.2-19h-6.732ZM5.307,1.507a16.678,16.678,0,0,0,9.715-8.632H8.81A21.976,21.976,0,0,1,5.307,1.507Zm-10.613,0a22.136,22.136,0,0,1-3.5-8.632h-6.212A16.653,16.653,0,0,0-5.307,1.507ZM0,4.75a19,19,0,0,1-16.454-9.5,19,19,0,0,1,0-19A19,19,0,0,1,0-33.25a19,19,0,0,1,16.454,9.5,19,19,0,0,1,0,19A19,19,0,0,1,0,4.75Z" transform="translate(19 33.25)" fill="#fff"/>
</svg>
