<svg xmlns="http://www.w3.org/2000/svg" width="23.75" height="33.25" viewBox="0 0 23.75 33.25">
  <path id="Path_888" data-name="Path 888" d="M-5.937-21.969A6.531,6.531,0,0,1,.594-28.5h.527a6.46,6.46,0,0,1,2.063.334l5.938,1.982a1.182,1.182,0,0,0,1.5-.75,1.182,1.182,0,0,0-.75-1.5L3.934-30.415a8.83,8.83,0,0,0-2.813-.46H.594a8.9,8.9,0,0,0-8.906,8.906v7.719h-2.375a1.191,1.191,0,0,0-1.187,1.188,1.191,1.191,0,0,0,1.188,1.188H-8.32A27.343,27.343,0,0,1-11.645.468l-.082.148A1.181,1.181,0,0,0-11.7,1.789a1.2,1.2,0,0,0,1.017.586H10.688a1.188,1.188,0,0,0,0-2.375H-8.75A29.739,29.739,0,0,0-5.945-11.875H5.938a1.191,1.191,0,0,0,1.188-1.187A1.191,1.191,0,0,0,5.938-14.25H-5.937v-7.719Z" transform="translate(11.875 30.875)" fill="#fff"/>
</svg>
