<svg xmlns="http://www.w3.org/2000/svg" width="34" height="34" viewBox="0 0 34 34">
  <path id="Path_892" data-name="Path 892" d="M0-28.687a15.938,15.938,0,0,1,13.8,7.969,15.938,15.938,0,0,1,0,15.938A15.938,15.938,0,0,1,0,3.188,15.938,15.938,0,0,1-13.8-4.781a15.938,15.938,0,0,1,0-15.937A15.938,15.938,0,0,1,0-28.687ZM0,4.25a17,17,0,0,0,14.722-8.5,17,17,0,0,0,0-17A17,17,0,0,0,0-29.75a17,17,0,0,0-14.722,8.5,17,17,0,0,0,0,17A17,17,0,0,0,0,4.25ZM6.754-16.621a.533.533,0,0,0,0-.75.533.533,0,0,0-.75,0L-2.125-9.25-6-13.122a.533.533,0,0,0-.75,0,.533.533,0,0,0,0,.75l4.25,4.25a.533.533,0,0,0,.75,0Z" transform="translate(17 29.75)" fill="#fff"/>
</svg>
