<svg xmlns="http://www.w3.org/2000/svg" width="34" height="34" viewBox="0 0 34 34">
  <path id="Path_887" data-name="Path 887" d="M0-28.687a15.938,15.938,0,0,1,13.8,7.969,15.938,15.938,0,0,1,0,15.938A15.938,15.938,0,0,1,0,3.188,15.938,15.938,0,0,1-13.8-4.781a15.938,15.938,0,0,1,0-15.937A15.938,15.938,0,0,1,0-28.687ZM0,4.25a17,17,0,0,0,14.722-8.5,17,17,0,0,0,0-17A17,17,0,0,0,0-29.75a17,17,0,0,0-14.722,8.5,17,17,0,0,0,0,17A17,17,0,0,0,0,4.25ZM-5.16-17.91a.533.533,0,0,0,0,.75L-.75-12.75l-4.4,4.4a.533.533,0,0,0,0,.75.533.533,0,0,0,.75,0L0-12,4.4-7.6a.533.533,0,0,0,.75,0,.533.533,0,0,0,0-.75l-4.4-4.4,4.4-4.4a.533.533,0,0,0,0-.75.533.533,0,0,0-.75,0L0-13.5l-4.4-4.4a.533.533,0,0,0-.75,0Z" transform="translate(17 29.75)" fill="#fff"/>
</svg>
