<svg xmlns="http://www.w3.org/2000/svg" width="124.197" height="23.287" viewBox="0 0 124.197 23.287">
  <g id="Group_230" data-name="Group 230" transform="translate(-1090.902 -9343.868)">
    <path id="Path_478" data-name="Path 478" d="M203.017,0H179.73V23.287h23.287Z" transform="translate(911.172 9343.868)" fill="#00b67a"/>
    <path id="Path_479" data-name="Path 479" d="M224.661,0H201.375V23.287h23.286Z" transform="translate(914.756 9343.868)" fill="#00b67a"/>
    <path id="Path_480" data-name="Path 480" d="M246.306,0H223.02V23.287h23.286Z" transform="translate(918.338 9343.868)" fill="#00b67a"/>
    <path id="Path_481" data-name="Path 481" d="M267.951,0H244.664V23.287h23.287Z" transform="translate(921.921 9343.868)" fill="#00b67a"/>
    <path id="Path_482" data-name="Path 482" d="M287.941,0H276.3V23.287h11.644Z" transform="translate(927.157 9343.868)" fill="rgba(220,220,230,0.15)"/>
    <path id="Path_483" data-name="Path 483" d="M277.952,0H266.309V23.287h11.643Z" transform="translate(925.504 9343.868)" fill="#00b67a"/>
    <path id="Path_484" data-name="Path 484" d="M289.6,0H266.309V23.287H289.6Z" transform="translate(925.504 9343.868)" fill="#00b67a"/>
    <path id="Path_485" data-name="Path 485" d="M190.876,15.136l3.542-.9L195.9,18.8Zm8.151-5.895h-6.233l-1.917-5.87-1.916,5.87h-6.233l5.044,3.639-1.916,5.87,5.046-3.639,3.1-2.232Z" transform="translate(911.668 9344.426)" fill="#fff"/>
    <path id="Path_486" data-name="Path 486" d="M212.522,15.136l3.541-.9,1.48,4.56Zm8.151-5.895h-6.234l-1.916-5.87-1.916,5.87h-6.234l5.046,3.639-1.916,5.87,5.046-3.639,3.1-2.232Z" transform="translate(915.251 9344.426)" fill="#fff"/>
    <path id="Path_487" data-name="Path 487" d="M234.165,15.136l3.542-.9,1.48,4.56Zm8.151-5.895h-6.233l-1.917-5.87-1.916,5.87h-6.233l5.046,3.639-1.917,5.87,5.046-3.639,3.1-2.232Z" transform="translate(918.834 9344.426)" fill="#fff"/>
    <path id="Path_488" data-name="Path 488" d="M255.811,15.136l3.542-.9,1.479,4.56Zm8.151-5.895h-6.234l-1.916-5.87-1.916,5.87H247.66l5.046,3.639-1.916,5.87,5.046-3.639,3.1-2.232Z" transform="translate(922.417 9344.426)" fill="#fff"/>
    <path id="Path_489" data-name="Path 489" d="M277.456,15.136l3.541-.9,1.48,4.56ZM285.6,9.242h-6.233l-1.916-5.87-1.917,5.87H269.3l5.046,3.639-1.917,5.87,5.046-3.639,3.105-2.232Z" transform="translate(926 9344.426)" fill="#fff"/>
  </g>
</svg>
