<svg xmlns="http://www.w3.org/2000/svg" width="52.425" height="42.843" viewBox="0 0 52.425 42.843">
  <g id="Group_7913" data-name="Group 7913" transform="translate(-361.472 -3577.632)">
    <path id="Path_896" data-name="Path 896" d="M1.472,19.99V13.506L23.651-14.187H2.2v-8.181H36.558v6.545L14.44,11.749H36.922V19.99Z" transform="translate(360 3600)" fill="#fff"/>
    <path id="Path_897" data-name="Path 897" d="M96.347,3.662A5.1,5.1,0,0,1,94.816-.091a5.1,5.1,0,0,1,1.531-3.753A5.1,5.1,0,0,1,100.1-5.376a5.1,5.1,0,0,1,3.753,1.531,5.1,5.1,0,0,1,1.531,3.753,5.1,5.1,0,0,1-1.531,3.753,5.365,5.365,0,0,1-7.507,0Z" transform="translate(308.512 3615.281)" fill="#8145e7"/>
  </g>
</svg>
