<svg xmlns="http://www.w3.org/2000/svg" width="98.976" height="29.152" viewBox="0 0 98.976 29.152">
  <g id="Group_7849" data-name="Group 7849" transform="translate(-361.472 -3577.632)">
    <path id="Path_896" data-name="Path 896" d="M1.472,0V-3.424L13.184-18.048H1.856v-4.32H20v3.456L8.32-4.352H20.192V0Zm37.5-2.5A9.626,9.626,0,0,1,32.144.256a9.066,9.066,0,0,1-6.48-2.416A8.487,8.487,0,0,1,23.1-8.64,8.356,8.356,0,0,1,25.712-15.1a8.8,8.8,0,0,1,6.16-2.4A8.906,8.906,0,0,1,37.9-15.36a7.375,7.375,0,0,1,2.48,5.888v2.56H27.84a3.424,3.424,0,0,0,1.472,2.3,4.711,4.711,0,0,0,2.816.9,5.523,5.523,0,0,0,4.16-1.7Zm-3.456-7.84A3.407,3.407,0,0,0,34.368-12.7a3.634,3.634,0,0,0-2.416-.832,4.326,4.326,0,0,0-2.608.864,3.3,3.3,0,0,0-1.376,2.336ZM58.752-2.5A9.626,9.626,0,0,1,51.92.256,9.066,9.066,0,0,1,45.44-2.16a8.487,8.487,0,0,1-2.56-6.48A8.356,8.356,0,0,1,45.488-15.1a8.8,8.8,0,0,1,6.16-2.4A8.906,8.906,0,0,1,57.68-15.36a7.375,7.375,0,0,1,2.48,5.888v2.56H47.616a3.424,3.424,0,0,0,1.472,2.3,4.711,4.711,0,0,0,2.816.9,5.523,5.523,0,0,0,4.16-1.7ZM55.3-10.336A3.407,3.407,0,0,0,54.144-12.7a3.634,3.634,0,0,0-2.416-.832,4.326,4.326,0,0,0-2.608.864,3.3,3.3,0,0,0-1.376,2.336ZM69.152-13.76v7.712A2.215,2.215,0,0,0,69.664-4.5a1.594,1.594,0,0,0,1.216.56,2.773,2.773,0,0,0,2.272-1.216l1.792,3.36A6.93,6.93,0,0,1,70.224.256a5.847,5.847,0,0,1-4.192-1.632A5.854,5.854,0,0,1,64.32-5.824V-13.76H62.3v-3.456H64.32v-5.152h4.832v5.152h4.16v3.456ZM80.48,6.784a6.98,6.98,0,0,1-4.768-2.048l2.176-3.552a3.594,3.594,0,0,0,2.5,1.184,1.4,1.4,0,0,0,1.152-.656A2.317,2.317,0,0,0,82.016.32q0-.736-6.656-17.536h5.12L84.672-6.5l4.192-10.72h5.12l-8,20.288a5.712,5.712,0,0,1-2.192,2.736A5.909,5.909,0,0,1,80.48,6.784Z" transform="translate(360 3600)" fill="#fff"/>
    <path id="Path_897" data-name="Path 897" d="M95.632-.56a2.72,2.72,0,0,1-.816-2,2.72,2.72,0,0,1,.816-2,2.72,2.72,0,0,1,2-.816,2.72,2.72,0,0,1,2,.816,2.72,2.72,0,0,1,.816,2,2.72,2.72,0,0,1-.816,2,2.72,2.72,0,0,1-2,.816A2.72,2.72,0,0,1,95.632-.56Z" transform="translate(360 3600)" fill="#8145e7"/>
  </g>
</svg>
